<svg width="35" height="35" viewBox="0 0 35 35" fill="none" xmlns="http://www.w3.org/2000/svg">
<path d="M13.6956 28.3914C13.6956 27.8391 14.1433 27.3914 14.6956 27.3914H20.3043C20.8565 27.3914 21.3043 27.8391 21.3043 28.3914V34.0001C21.3043 34.5523 20.8565 35.0001 20.3043 35.0001H14.6956C14.1433 35.0001 13.6956 34.5523 13.6956 34.0001V28.3914Z" fill="#222222"/>
<path d="M13.6956 1C13.6956 0.447716 14.1433 0 14.6956 0H20.3043C20.8565 0 21.3043 0.447715 21.3043 1V6.60869C21.3043 7.16098 20.8565 7.6087 20.3043 7.6087H14.6956C14.1433 7.6087 13.6956 7.16098 13.6956 6.6087V1Z" fill="#222222"/>
<path d="M34 13.6956C34.5523 13.6956 35 14.1433 35 14.6956L35 20.3043C35 20.8565 34.5523 21.3043 34 21.3043L28.3913 21.3043C27.839 21.3043 27.3913 20.8565 27.3913 20.3043L27.3913 14.6956C27.3913 14.1433 27.839 13.6956 28.3913 13.6956L34 13.6956Z" fill="#222222"/>
<path d="M6.60864 13.6956C7.16093 13.6956 7.60864 14.1433 7.60864 14.6956L7.60864 20.3043C7.60864 20.8565 7.16093 21.3043 6.60864 21.3043L0.999948 21.3043C0.447663 21.3043 -5.30929e-05 20.8565 -5.30688e-05 20.3043L-5.28236e-05 14.6956C-5.27995e-05 14.1433 0.447662 13.6956 0.999947 13.6956L6.60864 13.6956Z" fill="#222222"/>
<path d="M7.153 22.4669C7.54353 22.0763 8.17669 22.0763 8.56721 22.4669L12.5332 26.4328C12.9237 26.8233 12.9237 27.4565 12.5332 27.847L8.52279 31.8574C8.13227 32.2479 7.4991 32.2479 7.10858 31.8574L3.14263 27.8915C2.75211 27.5009 2.75211 26.8678 3.14263 26.4772L7.153 22.4669Z" fill="#222222"/>
<path d="M26.4772 3.14265C26.8677 2.75213 27.5009 2.75213 27.8914 3.14265L31.8574 7.1086C32.2479 7.49912 32.2479 8.13229 31.8574 8.52281L27.8516 12.5286C27.4611 12.9191 26.8279 12.9191 26.4374 12.5286L22.4714 8.56264C22.0809 8.17212 22.0809 7.53895 22.4714 7.14843L26.4772 3.14265Z" fill="#222222"/>
<path d="M31.8573 26.477C32.2479 26.8675 32.2479 27.5007 31.8573 27.8912L27.8914 31.8571C27.5009 32.2477 26.8677 32.2477 26.4772 31.8571L22.5112 27.8912C22.1207 27.5007 22.1207 26.8675 22.5112 26.477L26.4772 22.511C26.8677 22.1205 27.5009 22.1205 27.8914 22.511L31.8573 26.477Z" fill="#222222"/>
<path d="M10.9262 5.54582C11.3167 5.93635 11.3167 6.56951 10.9262 6.96004L6.96025 10.926C6.56972 11.3165 5.93656 11.3165 5.54603 10.926L3.14267 8.52262C2.75214 8.13209 2.75214 7.49893 3.14267 7.1084L7.10861 3.14246C7.49914 2.75193 8.1323 2.75193 8.52283 3.14246L10.9262 5.54582Z" fill="#222222"/>
<path fill-rule="evenodd" clip-rule="evenodd" d="M17.5001 32.7175C25.9044 32.7175 32.7175 25.9044 32.7175 17.5001C32.7175 9.09577 25.9044 2.28271 17.5001 2.28271C9.09577 2.28271 2.28271 9.09577 2.28271 17.5001C2.28271 25.9044 9.09577 32.7175 17.5001 32.7175ZM17.5001 25.1087C21.7022 25.1087 25.1087 21.7022 25.1087 17.5C25.1087 13.2978 21.7022 9.8913 17.5001 9.8913C13.2979 9.8913 9.89136 13.2978 9.89136 17.5C9.89136 21.7022 13.2979 25.1087 17.5001 25.1087Z" fill="#222222"/>
</svg>
